<?xml version="1.0" encoding="UTF-8"?>
<!DOCTYPE svg PUBLIC "-//W3C//DTD SVG 1.1//EN" "http://www.w3.org/Graphics/SVG/1.1/DTD/svg11.dtd">
<!-- Creator: CorelDRAW 2020 (64-Bit) -->
<svg xmlns="http://www.w3.org/2000/svg" xml:space="preserve" width="70px" height="67px" version="1.1" style="shape-rendering:geometricPrecision; text-rendering:geometricPrecision; image-rendering:optimizeQuality; fill-rule:evenodd; clip-rule:evenodd"
viewBox="0 0 5.86 5.6"
 xmlns:xlink="http://www.w3.org/1999/xlink"
 xmlns:xodm="http://www.corel.com/coreldraw/odm/2003">
 <defs>
  <style type="text/css">
   <![CDATA[
    .fil0 {fill:#FEFEFE;fill-rule:nonzero}
    .fil2 {fill:#C2C5C5;fill-rule:nonzero}
    .fil3 {fill:#212123;fill-rule:nonzero}
    .fil1 {fill:#43AA41;fill-rule:nonzero}
    .fil4 {fill:#BBE0BA;fill-rule:nonzero}
   ]]>
  </style>
 </defs>
 <g id="Capa_x0020_1">
  <metadata id="CorelCorpID_0Corel-Layer"/>
  <g id="_2057242355296">
   <path class="fil0" d="M0.05 0.57c0,0 0,-0.52 0.52,-0.52l4.71 0c0,0 0.53,0 0.53,0.52l0 3.15c0,0 0,0.52 -0.53,0.52l-4.71 0c0,0 -0.52,0 -0.52,-0.52l0 -3.15z"/>
   <polygon class="fil1" points="0.57,3.72 5.28,3.72 5.28,0.57 0.57,0.57 "/>
   <polygon class="fil0" points="1.78,3.76 1.87,3.76 1.87,3.72 1.78,3.72 "/>
   <polygon class="fil0" points="3.56,2.57 3.84,2.57 3.84,2.28 3.56,2.28 "/>
   <polygon class="fil0" points="3.84,2.57 4.13,2.57 4.13,2.27 3.84,2.27 "/>
   <polygon class="fil0" points="3.84,2.28 4.13,2.28 4.13,1.99 3.84,1.99 "/>
   <polygon class="fil0" points="4.13,1.99 4.42,1.99 4.42,1.71 4.13,1.71 "/>
   <polygon class="fil0" points="3.84,3.14 4.13,3.14 4.13,2.85 3.84,2.85 "/>
   <polygon class="fil0" points="4.13,2.85 4.42,2.85 4.42,2.57 4.13,2.57 "/>
   <polygon class="fil0" points="4.42,2.57 4.71,2.57 4.71,2.28 4.42,2.28 "/>
   <polygon class="fil0" points="4.42,3.14 4.7,3.14 4.7,2.85 4.42,2.85 "/>
   <polygon class="fil0" points="4.7,2.28 4.99,2.28 4.99,1.99 4.7,1.99 "/>
   <polygon class="fil0" points="4.99,1.99 5.28,1.99 5.28,1.71 4.99,1.71 "/>
   <polygon class="fil0" points="4.7,2.57 4.99,2.57 4.99,2.27 4.7,2.27 "/>
   <polygon class="fil0" points="4.98,2.57 5.28,2.57 5.28,2.28 4.98,2.28 "/>
   <polygon class="fil0" points="4.7,3.14 4.99,3.14 4.99,2.85 4.7,2.85 "/>
   <polygon class="fil0" points="4.99,3.43 5.28,3.43 5.28,3.14 4.99,3.14 "/>
   <polygon class="fil0" points="4.42,3.43 4.7,3.43 4.7,3.13 4.42,3.13 "/>
   <polygon class="fil0" points="4.13,3.72 4.42,3.72 4.42,3.43 4.13,3.43 "/>
   <polygon class="fil0" points="2.41,5.02 3.45,5.02 3.45,4.24 2.41,4.24 "/>
   <path class="fil2" d="M3.45 4.24l0 0zm-1.04 0l0 0 1.04 0 -1.04 0z"/>
   <polygon class="fil2" points="3.45,4.68 2.41,4.24 3.45,4.24 "/>
   <path class="fil0" d="M2.41 5.02c0,0 -0.53,0 -0.53,0.53l2.1 0c0,0 0,-0.53 -0.53,-0.53l-1.04 0z"/>
   <path class="fil3" d="M0.05 0.57l0.05 0 0 0 0 0 0 0 0 0c0,0 0,-0.12 0.06,-0.24 0.03,-0.06 0.08,-0.12 0.14,-0.16 0.07,-0.04 0.15,-0.07 0.27,-0.07l4.71 0 0 0 0 0 0 0 0 0c0.01,0 0.13,0 0.25,0.06 0.06,0.03 0.11,0.08 0.16,0.14 0.04,0.07 0.07,0.15 0.07,0.27l0 3.15 0 0 0 0 0 0 0 0c0,0 0,0.12 -0.07,0.24 -0.03,0.06 -0.07,0.11 -0.13,0.16 -0.07,0.04 -0.15,0.07 -0.28,0.07l-4.71 0 0 0 0 0 0 0 0 0c0,0 -0.12,0 -0.24,-0.07 -0.06,-0.03 -0.12,-0.07 -0.16,-0.13 -0.04,-0.07 -0.07,-0.15 -0.07,-0.27l0 -3.15 -0.1 0 0 3.15c0,0.13 0.04,0.24 0.09,0.33 0.04,0.06 0.09,0.1 0.15,0.14 0.08,0.05 0.16,0.07 0.22,0.09 0.07,0.01 0.11,0.01 0.11,0.01l4.71 0c0.14,0 0.25,-0.04 0.34,-0.09 0.06,-0.04 0.1,-0.09 0.14,-0.15 0.05,-0.08 0.07,-0.16 0.09,-0.22 0.01,-0.07 0.01,-0.11 0.01,-0.11l0 -3.15c0,-0.13 -0.04,-0.24 -0.09,-0.33 -0.04,-0.06 -0.09,-0.1 -0.15,-0.14 -0.08,-0.05 -0.16,-0.07 -0.22,-0.09 -0.07,-0.01 -0.11,-0.01 -0.12,-0.01l-4.71 0c-0.14,0 -0.24,0.04 -0.33,0.09 -0.06,0.04 -0.1,0.09 -0.14,0.15 -0.05,0.08 -0.07,0.16 -0.09,0.22 -0.01,0.07 -0.01,0.11 -0.01,0.11l0.05 0z"/>
   <path class="fil3" d="M5.28 0.57l0 -0.05 -4.71 0c-0.01,0 -0.02,0.01 -0.03,0.02 -0.01,0.01 -0.02,0.02 -0.02,0.03l0 3.15c0,0.01 0.01,0.02 0.02,0.03 0.01,0.01 0.02,0.02 0.03,0.02l4.71 0c0.02,0 0.03,-0.01 0.04,-0.02 0.01,-0.01 0.02,-0.02 0.02,-0.03l0 -3.15c0,-0.01 -0.01,-0.02 -0.02,-0.03 -0.01,-0.01 -0.02,-0.02 -0.04,-0.02l0 0.05 -0.05 0 0 3.09 -4.61 0 0 -3.03 4.66 0 0 -0.06 -0.05 0 0.05 0z"/>
   <polygon class="fil3" points="2.41,4.24 2.36,4.24 2.36,5.07 3.5,5.07 3.5,4.19 2.36,4.19 2.36,4.24 2.41,4.24 2.41,4.29 3.4,4.29 3.4,4.97 2.46,4.97 2.46,4.24 2.41,4.24 2.41,4.29 "/>
   <path class="fil3" d="M2.41 5.02l0 -0.05c-0.01,0 -0.15,0 -0.29,0.07 -0.07,0.04 -0.14,0.09 -0.2,0.18 -0.05,0.08 -0.09,0.19 -0.09,0.33l0 0.05 2.2 0 0 -0.05c0,-0.01 0,-0.14 -0.07,-0.29 -0.04,-0.07 -0.09,-0.14 -0.18,-0.2 -0.08,-0.05 -0.19,-0.09 -0.33,-0.09l0 0.03 0 -0.03 0 0 0 0.03 0 -0.03 0 0 0 0.05 0 -0.05 -1.04 0 0 0.05 0 0.05 1.04 0 0 0 0 -0.04 0 0.04 0 0 0 -0.04 0 0.04 0 -0.02 0 0.02 0 -0.02 0 0.02 0 0c0.13,0 0.21,0.03 0.28,0.08 0.05,0.03 0.08,0.07 0.11,0.11 0.04,0.07 0.06,0.14 0.07,0.2 0.01,0.02 0.01,0.05 0.01,0.06 0,0.01 0.01,0.02 0.01,0.02l0 0.01 0 0 0.05 0 0 -0.05 -2.1 0 0 0.05 0.05 0c0,-0.13 0.03,-0.21 0.08,-0.28 0.03,-0.05 0.07,-0.08 0.11,-0.11 0.07,-0.04 0.14,-0.06 0.19,-0.08 0.03,0 0.06,0 0.07,0 0.01,-0.01 0.02,-0.01 0.02,-0.01l0.01 0 0 0 0 -0.05z"/>
   <path class="fil4" d="M0.83 1.68c0.1,0 0.16,-0.08 0.16,-0.2 0,-0.11 -0.06,-0.19 -0.16,-0.19 -0.09,0 -0.15,0.08 -0.15,0.19 0,0.12 0.06,0.2 0.15,0.2zm0 -0.09c-0.04,0 -0.06,-0.04 -0.06,-0.11 0,-0.07 0.02,-0.11 0.06,-0.11 0.05,0 0.07,0.04 0.07,0.11 0,0.07 -0.02,0.11 -0.07,0.11zm0.27 -0.3l-0.1 0.04 0.02 0.07 0.06 -0.02 0 0.29 0.09 0 0 -0.38 -0.07 0zm0.28 0.39c0.09,0 0.15,-0.08 0.15,-0.2 0,-0.11 -0.06,-0.19 -0.15,-0.19 -0.1,0 -0.16,0.08 -0.16,0.19 0,0.12 0.06,0.2 0.16,0.2zm0 -0.09c-0.05,0 -0.07,-0.04 -0.07,-0.11 0,-0.07 0.02,-0.11 0.07,-0.11 0.04,0 0.06,0.04 0.06,0.11 0,0.07 -0.02,0.11 -0.06,0.11zm0.34 0.09c0.09,0 0.15,-0.08 0.15,-0.2 0,-0.11 -0.06,-0.19 -0.15,-0.19 -0.1,0 -0.16,0.08 -0.16,0.19 0,0.12 0.06,0.2 0.16,0.2zm0 -0.09c-0.05,0 -0.07,-0.04 -0.07,-0.11 0,-0.07 0.02,-0.11 0.07,-0.11 0.04,0 0.06,0.04 0.06,0.11 0,0.07 -0.02,0.11 -0.06,0.11zm0.26 -0.3l-0.1 0.04 0.02 0.07 0.07 -0.02 0 0.29 0.08 0 0 -0.38 -0.07 0zm0.22 0l-0.1 0.04 0.02 0.07 0.06 -0.02 0 0.29 0.09 0 0 -0.38 -0.07 0zm0.21 0l-0.1 0.04 0.02 0.07 0.07 -0.02 0 0.29 0.09 0 0 -0.38 -0.08 0zm0.28 0.39c0.1,0 0.16,-0.08 0.16,-0.2 0,-0.11 -0.06,-0.19 -0.16,-0.19 -0.09,0 -0.15,0.08 -0.15,0.19 0,0.12 0.06,0.2 0.15,0.2zm0 -0.09c-0.04,0 -0.06,-0.04 -0.06,-0.11 0,-0.07 0.02,-0.11 0.06,-0.11 0.05,0 0.07,0.04 0.07,0.11 0,0.07 -0.02,0.11 -0.07,0.11z"/>
   <path class="fil4" d="M0.83 2.32c0.1,0 0.16,-0.08 0.16,-0.19 0,-0.12 -0.06,-0.2 -0.16,-0.2 -0.09,0 -0.15,0.08 -0.15,0.2 0,0.11 0.06,0.19 0.15,0.19zm0 -0.08c-0.04,0 -0.06,-0.04 -0.06,-0.11 0,-0.07 0.02,-0.11 0.06,-0.11 0.05,0 0.07,0.04 0.07,0.11 0,0.07 -0.02,0.11 -0.07,0.11zm0.27 -0.3l-0.1 0.03 0.02 0.08 0.06 -0.02 0 0.29 0.09 0 0 -0.38 -0.07 0zm0.21 0l-0.1 0.03 0.02 0.08 0.07 -0.02 0 0.29 0.09 0 0 -0.38 -0.08 0zm0.22 0l-0.1 0.03 0.02 0.08 0.07 -0.02 0 0.29 0.08 0 0 -0.38 -0.07 0zm0.28 0.38c0.1,0 0.15,-0.08 0.15,-0.19 0,-0.12 -0.05,-0.2 -0.15,-0.2 -0.1,0 -0.15,0.08 -0.15,0.2 0,0.11 0.05,0.19 0.15,0.19zm0 -0.08c-0.04,0 -0.07,-0.04 -0.07,-0.11 0,-0.07 0.03,-0.11 0.07,-0.11 0.05,0 0.07,0.04 0.07,0.11 0,0.07 -0.02,0.11 -0.07,0.11zm0.26 -0.3l-0.09 0.03 0.02 0.08 0.06 -0.02 0 0.29 0.09 0 0 -0.38 -0.08 0zm0.29 0.38c0.09,0 0.15,-0.08 0.15,-0.19 0,-0.12 -0.06,-0.2 -0.15,-0.2 -0.1,0 -0.16,0.08 -0.16,0.2 0,0.11 0.06,0.19 0.16,0.19zm0 -0.08c-0.05,0 -0.07,-0.04 -0.07,-0.11 0,-0.07 0.02,-0.11 0.07,-0.11 0.04,0 0.06,0.04 0.06,0.11 0,0.07 -0.02,0.11 -0.06,0.11zm0.33 0.08c0.1,0 0.16,-0.08 0.16,-0.19 0,-0.12 -0.06,-0.2 -0.16,-0.2 -0.09,0 -0.15,0.08 -0.15,0.2 0,0.11 0.06,0.19 0.15,0.19zm0 -0.08c-0.04,0 -0.06,-0.04 -0.06,-0.11 0,-0.07 0.02,-0.11 0.06,-0.11 0.05,0 0.07,0.04 0.07,0.11 0,0.07 -0.02,0.11 -0.07,0.11z"/>
   <path class="fil4" d="M0.83 2.97c0.1,0 0.16,-0.08 0.16,-0.2 0,-0.11 -0.06,-0.19 -0.16,-0.19 -0.09,0 -0.15,0.08 -0.15,0.19 0,0.12 0.06,0.2 0.15,0.2zm0 -0.09c-0.04,0 -0.06,-0.03 -0.06,-0.11 0,-0.07 0.02,-0.11 0.06,-0.11 0.05,0 0.07,0.04 0.07,0.11 0,0.08 -0.02,0.11 -0.07,0.11zm0.27 -0.3l-0.1 0.04 0.02 0.07 0.06 -0.01 0 0.28 0.09 0 0 -0.38 -0.07 0zm0.21 0l-0.1 0.04 0.02 0.07 0.07 -0.01 0 0.28 0.09 0 0 -0.38 -0.08 0zm0.22 0l-0.1 0.04 0.02 0.07 0.07 -0.01 0 0.28 0.08 0 0 -0.38 -0.07 0zm0.28 0.39c0.1,0 0.15,-0.08 0.15,-0.2 0,-0.11 -0.05,-0.19 -0.15,-0.19 -0.1,0 -0.15,0.08 -0.15,0.19 0,0.12 0.05,0.2 0.15,0.2zm0 -0.09c-0.04,0 -0.07,-0.03 -0.07,-0.11 0,-0.07 0.03,-0.11 0.07,-0.11 0.05,0 0.07,0.04 0.07,0.11 0,0.08 -0.02,0.11 -0.07,0.11zm0.26 -0.3l-0.09 0.04 0.02 0.07 0.06 -0.01 0 0.28 0.09 0 0 -0.38 -0.08 0zm0.22 0l-0.1 0.04 0.02 0.07 0.07 -0.01 0 0.28 0.09 0 0 -0.38 -0.08 0zm0.22 0l-0.1 0.04 0.02 0.07 0.07 -0.01 0 0.28 0.08 0 0 -0.38 -0.07 0zm0.28 0.39c0.1,0 0.15,-0.08 0.15,-0.2 0,-0.11 -0.05,-0.19 -0.15,-0.19 -0.1,0 -0.15,0.08 -0.15,0.19 0,0.12 0.05,0.2 0.15,0.2zm0 -0.09c-0.05,0 -0.07,-0.03 -0.07,-0.11 0,-0.07 0.02,-0.11 0.07,-0.11 0.04,0 0.07,0.04 0.07,0.11 0,0.08 -0.03,0.11 -0.07,0.11zm0.26 -0.3l-0.1 0.04 0.02 0.07 0.07 -0.01 0 0.28 0.09 0 0 -0.38 -0.08 0z"/>
   <path class="fil4" d="M0.77 3.23l-0.1 0.04 0.02 0.07 0.07 -0.02 0 0.29 0.08 0 0 -0.38 -0.07 0zm0.21 0l-0.09 0.04 0.02 0.07 0.06 -0.02 0 0.29 0.09 0 0 -0.38 -0.08 0zm0.22 0l-0.1 0.04 0.02 0.07 0.07 -0.02 0 0.29 0.09 0 0 -0.38 -0.08 0zm0.22 0l-0.1 0.04 0.02 0.07 0.07 -0.02 0 0.29 0.08 0 0 -0.38 -0.07 0zm0.28 0.38c0.1,0 0.15,-0.08 0.15,-0.19 0,-0.12 -0.05,-0.2 -0.15,-0.2 -0.1,0 -0.15,0.08 -0.15,0.2 0,0.11 0.05,0.19 0.15,0.19zm0 -0.08c-0.05,0 -0.07,-0.04 -0.07,-0.11 0,-0.07 0.02,-0.11 0.07,-0.11 0.04,0 0.07,0.04 0.07,0.11 0,0.07 -0.03,0.11 -0.07,0.11zm0.34 0.08c0.1,0 0.15,-0.08 0.15,-0.19 0,-0.12 -0.05,-0.2 -0.15,-0.2 -0.1,0 -0.15,0.08 -0.15,0.2 0,0.11 0.05,0.19 0.15,0.19zm0 -0.08c-0.05,0 -0.07,-0.04 -0.07,-0.11 0,-0.07 0.02,-0.11 0.07,-0.11 0.04,0 0.07,0.04 0.07,0.11 0,0.07 -0.03,0.11 -0.07,0.11zm0.34 0.08c0.09,0 0.15,-0.08 0.15,-0.19 0,-0.12 -0.06,-0.2 -0.15,-0.2 -0.1,0 -0.16,0.08 -0.16,0.2 0,0.11 0.06,0.19 0.16,0.19zm0 -0.08c-0.05,0 -0.07,-0.04 -0.07,-0.11 0,-0.07 0.02,-0.11 0.07,-0.11 0.04,0 0.06,0.04 0.06,0.11 0,0.07 -0.02,0.11 -0.06,0.11zm0.26 -0.3l-0.1 0.04 0.02 0.07 0.07 -0.02 0 0.29 0.08 0 0 -0.38 -0.07 0zm0.28 0.38c0.1,0 0.16,-0.08 0.16,-0.19 0,-0.12 -0.06,-0.2 -0.16,-0.2 -0.1,0 -0.15,0.08 -0.15,0.2 0,0.11 0.05,0.19 0.15,0.19zm0 -0.08c-0.04,0 -0.07,-0.04 -0.07,-0.11 0,-0.07 0.03,-0.11 0.07,-0.11 0.05,0 0.07,0.04 0.07,0.11 0,0.07 -0.02,0.11 -0.07,0.11zm0.26 -0.3l-0.09 0.04 0.02 0.07 0.06 -0.02 0 0.29 0.09 0 0 -0.38 -0.08 0zm0.22 0l-0.1 0.04 0.02 0.07 0.07 -0.02 0 0.29 0.09 0 0 -0.38 -0.08 0zm0.28 0.38c0.1,0 0.16,-0.08 0.16,-0.19 0,-0.12 -0.06,-0.2 -0.16,-0.2 -0.09,0 -0.15,0.08 -0.15,0.2 0,0.11 0.06,0.19 0.15,0.19zm0 -0.08c-0.04,0 -0.06,-0.04 -0.06,-0.11 0,-0.07 0.02,-0.11 0.06,-0.11 0.05,0 0.07,0.04 0.07,0.11 0,0.07 -0.02,0.11 -0.07,0.11z"/>
   <path class="fil4" d="M2.17 2.04c0,0 0,-0.15 0.15,-0.15l1.22 0c0,0 0.15,0 0.15,0.15l0 1.07c0,0 0,0.15 -0.15,0.15l-1.22 0c0,0 -0.15,0 -0.15,-0.15l0 -1.07z"/>
   <path class="fil3" d="M2.17 2.04l0.05 0 0 0c0,0 0,-0.03 0.02,-0.06 0,-0.01 0.01,-0.02 0.02,-0.03 0.02,0 0.03,-0.01 0.06,-0.01l1.22 0c0,0 0.03,0 0.06,0.02 0.01,0 0.02,0.01 0.03,0.02 0,0.02 0.01,0.03 0.01,0.06l0 1.07c0,0 0,0.03 -0.02,0.05 0,0.02 -0.01,0.03 -0.03,0.03 -0.01,0.01 -0.02,0.02 -0.05,0.02l-1.22 0c0,0 -0.03,-0.01 -0.06,-0.02 -0.01,-0.01 -0.02,-0.01 -0.03,-0.03 0,-0.01 -0.01,-0.03 -0.01,-0.05l0 -1.07 -0.1 0 0 1.07c0,0.04 0.01,0.08 0.03,0.11 0.02,0.02 0.03,0.04 0.05,0.05 0.03,0.02 0.06,0.03 0.08,0.03 0.02,0.01 0.04,0.01 0.04,0.01l1.22 0c0.04,0 0.08,-0.01 0.11,-0.03 0.03,-0.02 0.04,-0.04 0.06,-0.06 0.01,-0.02 0.02,-0.05 0.03,-0.08 0,-0.02 0,-0.03 0,-0.03l0 -1.07c0,-0.04 -0.01,-0.08 -0.03,-0.11 -0.02,-0.03 -0.04,-0.04 -0.05,-0.06 -0.03,-0.01 -0.06,-0.02 -0.08,-0.03 -0.02,0 -0.04,0 -0.04,0l-1.22 0c-0.05,0 -0.08,0.01 -0.11,0.03 -0.03,0.02 -0.04,0.04 -0.06,0.05 -0.01,0.03 -0.02,0.06 -0.03,0.08 0,0.02 0,0.04 0,0.04l0.05 0z"/>
   <path class="fil3" d="M3.08 2.65l0.05 0c0,-0.11 -0.09,-0.2 -0.2,-0.2 -0.11,0 -0.2,0.09 -0.2,0.2 0,0.11 0.09,0.2 0.2,0.2 0.11,0 0.2,-0.09 0.2,-0.2l-0.1 0c0,0.03 -0.01,0.05 -0.03,0.07 -0.02,0.02 -0.04,0.03 -0.07,0.03 -0.03,0 -0.05,-0.01 -0.07,-0.03 -0.02,-0.02 -0.03,-0.04 -0.03,-0.07 0,-0.03 0.01,-0.05 0.03,-0.07 0.02,-0.02 0.04,-0.03 0.07,-0.03 0.03,0 0.05,0.01 0.07,0.03 0.02,0.02 0.03,0.04 0.03,0.07l0.05 0z"/>
   <path class="fil3" d="M2.88 2.27l0 0.23c0,0.03 0.02,0.05 0.05,0.05 0.03,0 0.05,-0.02 0.05,-0.05l0 -0.23c0,-0.03 -0.02,-0.05 -0.05,-0.05 -0.03,0 -0.05,0.02 -0.05,0.05z"/>
   <path class="fil3" d="M2.53 1.49c0,-0.12 0.04,-0.22 0.11,-0.29 0.08,-0.07 0.18,-0.12 0.29,-0.12 0.11,0 0.21,0.05 0.28,0.12 0.08,0.07 0.12,0.17 0.12,0.29l0 0.4c0,0.03 0.03,0.05 0.05,0.05 0.03,0 0.05,-0.02 0.05,-0.05l0 -0.4c0,-0.28 -0.22,-0.51 -0.5,-0.51 -0.28,0 -0.51,0.23 -0.51,0.51l0 0.4c0,0.03 0.03,0.05 0.06,0.05 0.02,0 0.05,-0.02 0.05,-0.05l0 -0.4z"/>
  </g>
 </g>
</svg>
